<?xml version="1.0" encoding="UTF-8" standalone="no"?>
<svg
   xmlns:dc="http://purl.org/dc/elements/1.1/"
   xmlns:cc="http://creativecommons.org/ns#"
   xmlns:rdf="http://www.w3.org/1999/02/22-rdf-syntax-ns#"
   xmlns:svg="http://www.w3.org/2000/svg"
   xmlns="http://www.w3.org/2000/svg"
   xmlns:sodipodi="http://sodipodi.sourceforge.net/DTD/sodipodi-0.dtd"
   xmlns:inkscape="http://www.inkscape.org/namespaces/inkscape"
   id="svg4802"
   height="300"
   viewBox="0 0 300 300"
   width="300"
   version="1.1"
   inkscape:version="0.91 r13725"
   sodipodi:docname="handtest2.svg">
  <metadata
     id="metadata5054">
    <rdf:RDF>
      <cc:Work
         rdf:about="">
        <dc:format>image/svg+xml</dc:format>
        <dc:type
           rdf:resource="http://purl.org/dc/dcmitype/StillImage" />
      </cc:Work>
    </rdf:RDF>
  </metadata>
  <defs
     id="defs5052" />
  <sodipodi:namedview
     pagecolor="#ffffff"
     bordercolor="#666666"
     borderopacity="1"
     objecttolerance="10"
     gridtolerance="10"
     guidetolerance="10"
     inkscape:pageopacity="0"
     inkscape:pageshadow="2"
     inkscape:window-width="1863"
     inkscape:window-height="1056"
     id="namedview5050"
     showgrid="false"
     inkscape:zoom="34.80851"
     inkscape:cx="52.275953"
     inkscape:cy="182.35081"
     inkscape:window-x="57"
     inkscape:window-y="24"
     inkscape:window-maximized="1"
     inkscape:current-layer="svg4802"
     inkscape:object-paths="true"
     inkscape:snap-intersection-paths="true"
     inkscape:object-nodes="true"
     inkscape:snap-smooth-nodes="true"
     inkscape:snap-midpoints="true" />
  <g
     id="group">
    <g
       id="stroke-group"
       stroke="#99ff55"
       stroke-width="2"
       fill="none">
      <g
         stroke-linejoin="round"
         stroke-linecap="round"
         id="g4985">
        <path
           id="path23542"
           d="m57.509 5.0772c-0.53112 2.5735-0.40998 5.456 0.17056 7.4145 1.2501 4.2177 5.3725 10.488 10.443 14.816 8.5004 7.2566 19.897 10.871 27.733 18.841 11.099 11.29 13.83 18.619 22.768 31.688 1.1089 1.6213 6.0125 10.997 6.6764 12.846 1.6634 4.6321 1.9173 9.7769 3.0814 14.559 1.0886 4.4724 3.3544 8.2437 3.4238 12.846 0.063 4.1768-1.5252 10.734-3.0576 14.836" />
        <path
           id="path18862-4-3-3"
           d="m39.587 139.68c-1.3328 1.384-1.7384 2.6296-1.8974 4.6923-0.22424 2.9094 2.2631 5.9178 5.1772 7.0521 9.3289 3.6314 15.342 9.9778 24.911 12.917 9.0983 2.7948 20.576 8.3216 34.581 13.36 15.858 5.7054 31.634 14.045 45.879 24.322 6.0597 4.3718 10.002 7.1275 16.777 10.277 3.1136 1.4475 12.221 7.0638 13.52 10.244 9.4649 23.165 15.45 76.678 16.267 76.427" />
        <path
           id="path18864-6-2-4"
           d="m31.173 40.947c-0.4756 1.0874-0.55064 2.1437-0.37426 3.1497 1.0882 6.2054 8.6608 8.5722 14.179 11.606 4.949 2.7204 10.845 3.1012 16.192 4.9171 6.2439 2.1204 12.404 4.8457 17.904 8.4847 10.235 6.772 20.524 16.535 27.432 26.682 3.2569 4.7845 4.4133 10.63 7.3526 15.616 3.9571 6.7128 14.884 21.525 14.884 21.525" />
        <path
           id="path18868-26-4-4"
           d="m 40.554,115.7 c 3.674601,3.4693 10.147386,3.8882 15.125,3.6136 5.653425,-0.31189 8.3631,-0.33865 13.811,1.1824 2.983298,0.83289 7.508637,1.73421 10.358048,2.97802 3.824118,1.6693 5.918528,3.8174 9.499952,5.92878 3.9331,2.3188 7.819,4.9036 10.956,8.2217 1.9795,2.0936 5.8014,9.8936 5.8014,9.8936"
           inkscape:connector-curvature="0"
           sodipodi:nodetypes="cscsccc" />
        <path
           id="path18866-7-3-3"
           d="m35.009 77.157c-0.13232 1.4985 0.19184 2.6778 0.68764 3.5018 3.4324 5.7043 11.411 7.0406 17.67 9.3042 7.5142 2.7178 11.509 2.0289 18.486 4.7981 8.4816 3.3666 16.202 9.8113 21.946 15.456 3.7359 3.6712 8.4364 8.9755 11.057 12.996 1.5905 2.4408 13.112 21.268 13.112 21.268" />
        <path
           id="path19317-0-9-0"
           d="m269.27 279.92c-21.985-2.495-38.871-11.162-74.456 19.099" />
        <path
           id="path19011-5-7-9"
           d="m84.387 15.837c-7.0157 1.9638-11.622 6.1525-10.28 15.835" />
        <path
           id="path19013-6-1-7"
           d="m105.47 28.517c-8.123 4.7847-13.056 10.279-9.6133 17.635" />
        <path
           id="path19015-9-2-2"
           d="m134.1 52.077c-9.606-0.0751-20.545-5.2647-26.542 8.5029" />
        <path
           id="path19017-8-2-5"
           d="m150.48 68.587c-10.872 2.6151-26.798-3.8708-28.912 14.518" />
        <path
           id="path19019-7-0-8"
           d="m166.34 88.947c-12.878 0.86877-25.218-3.6395-39.284 9.1219" />
        <path
           id="path19021-2-2-9"
           d="m181.55 111.3c-17.334 2.0645-35.266 2.0338-50.15 12.675" />
        <path
           id="path19023-8-1-0"
           d="m203.1 139.99c-28.49 5.6057-74.122 0.52769-88.015 42.863" />
        <path
           id="path19025-29-7-2"
           d="m223.29 171.14c-6.5725-9.6445-43.737 0.60874-43.737 0.85203 0 0-27.54 4.624-31.309 30.03" />
        <path
           id="path19027-9-5-4"
           d="m237.66 202.37c-21.666-0.79701-42.717-4.4941-59.117 20.179" />
        <path
           id="path19029-6-1-7"
           d="m253.58 240.43c-23.433-2.8716-47.402-3.6605-64.575 23.892" />
        <path
           id="path19031-0-7-6"
           d="m106.11 147.52c-16.661 16.958-6.5113 27.953-6.4224 29.208" />
        <path
           id="path19033-2-4-5"
           d="m129.84 109.82c-5.8026 2.3476-7.5508 9.0132-8.9134 12.223" />
        <path
           id="path19035-7-1-7"
           d="m125.3 90.687c-7.1444-0.71984-11.496 5.0795-14.786 13.36" />
        <path
           id="path19037-6-7-1"
           d="m106.8 64.297c-5.8332 4.2406-11.934 8.2435-12.123 17.504" />
        <path
           id="path19039-1-1-3"
           d="m87.67 52.267c-8.2207 2.9562-9.5893 6.7391-8.5892 16.843" />
        <path
           id="path19041-3-1-3"
           d="m64.699 42.047c-5.7818 1.668-6.8197 10.354-3.5241 18.578" />
        <path
           id="path19043-21-1-3"
           d="m39.585 38.667c-2.7605 4.0627-3.2339 8.0863-2.768 12.795" />
        <path
           id="path19045-5-7-8"
           d="m59.235 75.777c-4.5259-0.44162-7.5561 8.3371-5.8663 14.188" />
        <path
           id="path19047-99-0-5"
           d="m81.168 81.207c-7.8332 1.5866-9.8398 6.922-9.3112 13.553" />
        <path
           id="path19049-1-4-1"
           d="m100.32 90.157c-9.4884 7.3164-7.7258 9.2098-8.7337 17.934" />
        <path
           id="path19051-4-0-0"
           d="m 57.851786,107.28191 c -1.581389,4.84656 -3.0911,5.7401 1.2938,11.505"
           inkscape:connector-curvature="0"
           sodipodi:nodetypes="cc" />
        <path
           id="path19053-9-8-8"
           d="m 75.644,107.15 c -4.5482,2.7795 -5.2228,8.03023 -3.3312,14.03163"
           inkscape:connector-curvature="0"
           sodipodi:nodetypes="cc" />
        <path
           id="path19055-1-5-7"
           d="m108.68 129.5c-3.5742 0.98293-7.3671 3.919-8.3701 8.1178" />
        <path
           id="path19057-0-1-6"
           d="m112.56 108.93c-5.412 3.8184-5.9742 4.2879-7.7044 14.281" />
        <path
           id="path19059-7-6-3"
           d="m123.57 125.78c-5.7797 4.5689-6.2597 8.945-7.6299 15.336" />
        <path
           id="path19061-5-6-5"
           d="m94.545 113.62c-3.8526 3.6184-7.6242 7.1324-5.1927 15.781" />
        <path
           id="path19063-8-2-0"
           d="m58.442 135.03c-4.7436 5.8004-8.6298 12.053-4.2026 22.489" />
        <path
           id="path19031-6-7-1-8"
           d="m75.974 137.77c-12.147 5.0869-10.129 26.724-8.1936 26.574" />
        <path
           id="path19031-6-7-1-8-4"
           d="m92.191 145.41c-12.955 3.8338-9.3141 25.396-7.3893 25.418" />
        <path
           id="path19432-8-4-1"
           d="m57.509 5.0772c12.232 11.127 26.483 22.643 40.431 29.19l22.919 16.795 33.888 37.817 58.567 78.256 49.114 111.79" />
        <path
           id="path19434-0-8-1"
           d="m127.06 98.067 46.37 45.744 20.842 24.782 44.634 108.37" />
      </g>
      <path
         id="path25924"
         d="m107.56 60.587 33.096 29.632 62.967 77.106 47.181 109.92" />
      <path
         id="path4215"
         d="m163.89 194.05 19.827 21.777 21.184 75.22" />
      <path
         id="path4265"
         d="m31.174 40.947c32.22 23.515 56.998-6.8154 100.22 83.025l51.467 47.065 44.384 108.23" />
      <path
         id="path4365"
         d="m35.01 77.157c26.958 13.59 57.19-3.4084 87.549 64.233l48.428 33.258 18.859 35.509 26.762 73.601" />
      <path
         id="path4415"
         d="m 40.72761,115.8598 c 26.649,-3.8 57.67339,-1.7898 73.31439,30.2602"
         inkscape:connector-curvature="0"
         sodipodi:nodetypes="cc" />
      <g
         stroke-linecap="round"
         id="g5029">
        <path
           id="path4445"
           d="m57.51 5.0772c0.53119-2.5735 1.7146-4.838 3.4232-3.8902 7.481 4.1499 21.572 13.364 23.453 14.645 20.466 13.934 23.701 13.088 34.067 19.355 5.5291 3.3426 4.974 2.9851 12.034 12.481 8.3722 11.26 26.71 25.573 31.791 34.451 15.597 27.256 36.625 50.434 53.754 76.05 16.466 24.626 53.229 121.7 53.229 121.7" />
        <path
           id="path4447"
           d="m31.174 40.947c0.4756-1.0874 1.3518-2.206 2.3648-2.3315 8.8842-1.1007 15.662 3.6036 31.157 3.4257 10.642 2.6911 20.169 8.7534 29.787 14.045 4.8551 2.6714 18.018 12.312 18.018 12.312" />
        <path
           id="path4449"
           d="m35.01 77.157c0.13239-1.4985 0.7212-3.3161 1.9326-3.2112 7.3513 0.63695 21.181 1.3326 31.52 3.0416 10.001 1.653 35.828 15.083 35.351 15.083" />
        <path
           id="path4451"
           d="m 40.554,115.7 c -1.555608,-2.12242 -3.030176,-2.85342 5.4782,-5.9094 7.5627,-2.4374 12.237,-2.6771 20.034,-2.9975 6.4597,-0.2654 7.016354,-1.88476 15.75,1.7129 4.940697,2.03523 17.194,7.2348 17.194,7.2348"
           inkscape:connector-curvature="0"
           sodipodi:nodetypes="ccssc" />
        <path
           id="path4455"
           d="m39.588 139.68c1.3328-1.384 3.5928-2.9066 5.5935-3.429 11.374-2.9698 23.335-0.14373 33.211 2.0554 6.3058 1.4041 11.779 7.471 18.146 8.5642 9.3333 1.6027 18.813 0.66448 26.021-5.4811 3.1777-2.7094 4.6543-4.3568 6.1867-8.459" />
        <path
           id="path4477"
           d="m39.587 139.68c-1.8444 1.7187 38.011 22.204 57.108 24.434 13.137 2.8906 23.08 8.4571 22.91 8.3514 19.585 8.7578 20.199 14.761 15.066 20.628" />
        <path
           id="path4479"
           d="m96.543 146.87c14.977 8.9187 20.865 10.903 31.083 15.004 10.853 4.3557 24.766 14.406 30.925 20.586 2.5634 2.572 13.613 20.889-5.7692 22.789" />
      </g>
    </g>
    <g
       id="fill-group"
       fill="#ff5555">
      <path
         id="path25082-5"
         style="color-rendering:auto;color:#000000;isolation:auto;mix-blend-mode:normal;shape-rendering:auto;solid-color:#000000;image-rendering:auto;fill:#99ff55;fill-opacity:1;opacity:0.5"
         d="m109.65 179.3c-2.2589-0.93649-5.1941-2.0832-6.5225-2.5483-1.9379-0.67843-2.5571-1.0857-3.1322-2.0605-2.3943-4.0581-2.8056-9.363-1.1047-14.249 1.0449-3.0016 3.9054-7.629 6.3823-10.324 1.1944-1.2998 1.5761-1.4871 3.4842-1.7099 3.2313-0.37727 6.1451-1.2112 9.0014-2.5761 2.9331-1.4017 7.2796-4.7173 8.9519-6.8287 1.7443-2.2023 3.4696-6.1261 4.5877-10.433l1.0159-3.9135 2.6859-1.6168c7.3782-4.4413 16.157-7.113 28.24-8.5948 8.7497-1.073 17.663-1.9078 17.884-1.6748 0.12299 0.12995 4.6554 6.1293 10.072 13.332l9.8485 13.096-2.3935 0.38447c-2.584 0.41506-6.906 0.94821-19.179 2.3659-27.176 3.139-41.136 8.1238-51.904 18.533-5.3297 5.1523-9.4039 11.159-11.929 17.586-0.64202 1.6344-1.328 2.9635-1.5244 2.9535-0.19643-0.01-2.2054-0.78434-4.4643-1.7208z" />
      <path
         id="path25084-0"
         style="color:#000000;opacity:0.5;isolation:auto;mix-blend-mode:normal;solid-color:#000000;fill:#99ff55;fill-opacity:1;color-rendering:auto;image-rendering:auto;shape-rendering:auto"
         d="m 60.035,2.1972 c -0.16735,0.007 -0.26551,0.12804 -0.44335,0.3711 -0.77795,1.0632 -1.2082,3.2283 -1.2012,6.0566 0.006,2.4164 0.0959,3.0076 0.69531,4.543 1.9958,5.112 6.6186,10.963 11.777,14.904 l 1.8945,1.4473 0.15625,-2.3672 c 0.14022,-2.1364 0.58663,-4.0018 1.293,-5.3965 1.0754,-2.1236 3.8203,-4.5764 6.3984,-5.7168 0.64388,-0.28482 1.074,-0.60972 0.95508,-0.72266 -0.82161,-0.78028 -18.764,-11.895 -20.668,-12.803 C 60.437,2.29608 60.2019,2.18973 60.03456,2.19663 Z m -22.299,37.363 -1.8086,0.004 c -2.1255,0.004 -2.8593,0.31472 -3.5527,1.502 -1.1174,1.9132 -0.40514,4.593 1.834,6.9004 l 1.1738,1.209 0.27733,-2.4726 c 0.32086,-2.8465 0.66735,-4.2239 1.4902,-5.9297 l 0.58593,-1.2129 z m 2.6719,0.36524 c -0.38075,0.0236 -0.54505,0.34238 -1.1152,1.5371 -1.0015,2.0985 -1.5019,4.4902 -1.5039,7.1894 l -0.002,2.1465 4.8594,2.4551 c 5.7731,2.917 5.9272,2.9757 11.424,4.3672 3.8854,0.98356 5.1838,1.2511 5.1738,1.0684 -0.002,-0.0347 -0.22783,-1.1414 -0.50196,-2.4609 -0.93183,-4.485 -0.53805,-8.4926 1.1308,-11.529 l 0.85352,-1.5547 -2.0645,-0.17188 c -3.4662,-0.28798 -6.8876,-0.81342 -12.041,-1.8516 -2.7085,-0.54562 -5.2899,-1.0601 -5.7363,-1.1426 -0.19778,-0.0366 -0.34964,-0.0606 -0.47656,-0.0527 z m -2.6992,35.242 c -1.1641,0 -1.5427,0.61845 -1.5527,2.5293 -0.009,1.7489 0.81993,3.2618 2.6797,4.8887 1.7548,1.5351 4.1393,2.7069 8.8145,4.332 2.1419,0.74456 3.9621,1.3592 4.0449,1.3672 0.0828,0.008 0.15796,-0.9927 0.16797,-2.2246 0.0224,-2.8472 0.80269,-5.8131 2.084,-7.9258 0.52649,-0.86812 0.93616,-1.6006 0.91016,-1.6289 -0.0772,-0.084 -16.148,-1.3379 -17.148,-1.3379 z m 18.577012,33.38396 -1.824612,0.30587 c -1.9527,0.25903 -6.7733,1.5203 -8.5508,2.2383 -1.8163,0.73365 -4.507024,1.50003 -5.108624,2.50893 -0.40682,0.68231 0.638907,1.37982 1.277697,2.21728 1.1729,1.5378 3.211157,2.41029 6.250857,2.77959 0.93453,0.1135 2.3815,0.1552 3.2148,0.0937 1.6802,-0.12388 5.421126,-0.475 5.691826,-0.63397 0.0955,-0.0561 -0.655006,-0.98993 -1.096136,-1.92459 -0.6911,-1.4644 -0.8017,-1.9779 -0.80469,-3.7188 -0.002,-1.1112 0.613312,-2.53764 0.732862,-3.00904 z"
         inkscape:connector-curvature="0"
         sodipodi:nodetypes="ccscccccsscccccccccccccccccscccccscccscscscscsscccccccccccc" />
      <path
         id="path25887"
         style="color:#000000;opacity:0.5;isolation:auto;mix-blend-mode:normal;solid-color:#000000;fill:#99ff55;fill-opacity:1;color-rendering:auto;image-rendering:auto;shape-rendering:auto"
         d="m 83.882,17.217 c -0.1846,0.007 -0.35993,0.0636 -0.5918,0.13867 -3.2011,1.0368 -5.9195,3.1834 -7.1113,5.6152 -0.88435,1.8046 -1.4329,5.03 -1.1621,6.8359 0.20848,1.3902 -0.22727,1.0637 7.332,5.4648 5.0894,2.9631 8.7606,5.3195 10.363,6.6484 l 0.75781,0.62696 0.0645,-0.67383 c 0.31318,-3.2637 1.252,-5.5424 3.2637,-7.9219 1.243,-1.4702 3.8665,-3.7322 5.5039,-4.7441 l 0.91211,-0.5625 -3.1035,-1.6973 c -3.8677,-2.1139 -8.163,-4.7369 -12.527,-7.6504 -2.5091,-1.675 -3.1474,-2.0996 -3.7012,-2.0801 z M 64.73,43.346 c -1.2695,0 -3.0464,2.0486 -3.7305,4.3008 -0.726,2.3902 -0.60473,6.6504 0.2793,9.8047 0.67497,2.4083 0.14322,2.0087 5.4219,4.0742 1.8056,0.70655 4.9869,2.1716 7.0703,3.2539 l 3.7891,1.9668 0.1582,-3.0508 c 0.17649,-3.4125 0.47163,-4.7675 1.4219,-6.5254 0.83018,-1.5358 2.8848,-3.4817 4.5898,-4.3457 0.73154,-0.37069 1.2907,-0.71247 1.2422,-0.75977 -0.34221,-0.33376 -7.3408,-3.9397 -9.8672,-5.084 -3.6936,-1.673 -9.2929,-3.6348 -10.375,-3.6348 z m -5.2812,33.611 c -1.2741,-0.046 -1.6808,0.18644 -2.3516,0.77539 -2.0963,1.8406 -3.6525,7.3026 -2.9707,10.432 0.20801,0.95465 0.29208,1.0252 1.7168,1.459 0.82311,0.25058 3.9443,0.96059 6.9375,1.5781 2.9932,0.61753 5.8957,1.2876 6.4492,1.4902 0.55354,0.2026 1.0759,0.37672 1.1621,0.38672 0.0862,0.01 0.23804,-0.79537 0.33593,-1.7891 0.45718,-4.6396 2.4608,-7.9061 5.9316,-9.6738 l 1.1192,-0.57032 -1.498,-0.5625 c -4.8176,-1.8093 -7.1408,-2.3593 -13.357,-3.1602 -1.6336,-0.21046 -2.7101,-0.33762 -3.4746,-0.36524 z m 8.0371,30.994 c -2.6358,0.031 -5.6133,0.122 -7.0918,0.25 l -2.0137,0.17383 -0.43555,1.1367 c -0.23907,0.62504 -0.622088,1.8306 -0.630088,2.6797 -0.0116,1.2998 0.13434,1.8397 0.93164,3.4102 l 1.546653,2.41104 2.563835,0.009 c 1.5278,0.17077 3.7702,0.39964 5.2286,0.80851 1.4584,0.4089 2.7357,0.75297 2.8398,0.76367 0.22935,0.0235 0.23146,0.0814 -0.0664,-2.2129 -0.40228,-3.0983 0.48891,-7.0719 1.9492,-8.6856 0.22421,-0.24769 1.271484,-1.28032 1.166794,-1.38366 -1.846879,-0.013 -3.288189,0.31241 -5.988984,0.63961 z"
         inkscape:connector-curvature="0"
         sodipodi:nodetypes="ccccscccccccccccsscccccccsccccccscsccccsccccccccccccccccc" />
      <path
         id="path25885"
         style="color:#000000;opacity:0.5;isolation:auto;mix-blend-mode:normal;solid-color:#000000;fill:#99ff55;fill-opacity:1;color-rendering:auto;image-rendering:auto;shape-rendering:auto"
         d="m 105.51,29.757 -2.1055,1.4023 c -2.7814,1.8508 -5.6867,4.8088 -6.6231,6.7441 -0.93057,1.9233 -1.1302,4.059 -0.5625,6.0117 0.34656,1.1921 0.78343,1.8173 2.7227,3.8965 2.4311,2.6066 5.5602,6.4204 7.334,8.9356 0.58094,0.82378 1.1237,1.4111 1.2051,1.3066 0.0814,-0.10442 0.58476,-0.84396 1.1191,-1.6445 2.0037,-3.0019 5.066,-5.1784 8.4805,-6.0273 1.7703,-0.44013 7.4308,-0.38826 11.365,0.10547 1.5973,0.20045 2.9288,0.34546 2.959,0.32226 0.17433,-0.13424 -7.7357,-10.32 -8.7793,-11.305 -2.0228,-1.9093 -6.9313,-4.8096 -13.666,-8.0762 l -3.4492,-1.6719 z m -17.971,23.678 -1.834,0.87305 c -2.5219,1.1986 -3.7937,2.3612 -4.7812,4.3672 -0.77373,1.5717 -0.82914,1.8657 -0.92383,4.9043 -0.14574,4.6772 -0.14729,4.6749 2.1562,6.2832 2.6349,1.8397 7.6438,5.8676 9.7949,7.877 l 1.7637,1.6504 0.4375,-1.8555 c 1.0193,-4.3198 3.9374,-8.217 8.8555,-11.828 0.93426,-0.68598 1.6992,-1.3225 1.6992,-1.4141 0,-0.35362 -8.4227,-5.8628 -12.688,-8.2988 l -4.4805,-2.5586 z m -6.791,29.053 c -1.0279,0 -4.0745,1.5766 -5.1816,2.6816 -1.6732,1.6702 -2.6827,4.5058 -2.6777,7.5176 l 0.002,1.291 2.0859,0.95312 c 3.6814,1.683 9.0338,5.225 13.441,8.8965 l 2.2734,1.8945 0.19336,-2.5898 c 0.36759,-4.9273 1.5999,-7.4864 5.2305,-10.857 l 2.1074,-1.957 -4.6602,-2.2559 c -6.8295,-3.3072 -12.042,-5.5742 -12.814,-5.5742 z m -6.125,27.0077 c -1.5415,1.5963 -2.1125,3.2417 -2.1055,6.0742 0.003,1.1806 0.14719,2.7712 0.32031,3.5352 l 0.31446,1.3887 2.4551,0.88477 c 1.3503,0.48613 4.6149,1.9776 7.2539,3.3144 2.639,1.3369 4.7988,2.4455 4.7988,2.4629 l 0,-2.6836 c 0,-3.9592 0.97626,-6.3754 3.793,-9.3867 l 1.1172,-1.1934 -3.3965,-1.4473 c -4.8659,-2.0729 -8.895742,-3.86385 -12.633142,-4.56575 -0.773653,0.53299 -1.420715,1.1025 -1.917628,1.61658 z m -18.3694,26.4553 -2.6055,0.17382 c -3.4309,0.22811 -6.9743,0.79951 -8.6894,1.4024 -1.9631,0.68996 -4.5015,2.577 -5.2988,3.9375 -0.95673,1.6325 -1.0983,3.6704 -0.36133,5.2383 0.8095,1.7221 2.3646,2.9573 5.4102,4.2988 1.4598,0.64299 3.6502,1.7328 4.8691,2.4219 1.2189,0.68907 2.2514,1.2173 2.2949,1.1738 0.0435,-0.0435 -0.11134,-1.0873 -0.34375,-2.3184 -0.945,-5.0054 0.25348,-9.8982 3.6016,-14.713 l 1.123,-1.6152 z"
         inkscape:connector-curvature="0"
         sodipodi:nodetypes="ccsccccsssccccccccssccccscccccccccccccccccccccccsccccccccccscscccc" />
      <path
         id="path25611"
         style="color-rendering:auto;color:#000000;isolation:auto;mix-blend-mode:normal;shape-rendering:auto;solid-color:#000000;image-rendering:auto;fill:#99ff55;fill-opacity:1;opacity:0.5"
         d="m121.24 52.277c-1.9543 0.008-3.4666 0.18004-4.5547 0.51563-2.8198 0.86973-5.4374 3.1858-7.2246 6.3945l-0.67579 1.2148 4.4824 7.0664c2.4648 3.8866 5.1844 8.1415 6.043 9.457 0.85857 1.3155 1.5662 2.5094 1.5742 2.6524 0.008 0.14291 0.32238-0.59385 0.69922-1.6367 1.8316-5.0687 4.9782-7.7898 10.377-8.9746 0.97568-0.21412 4.4816-0.47328 8.4805-0.62696 3.7502-0.14411 6.9788-0.31791 7.1738-0.38671 0.22849-0.0806-2.1964-2.7053-6.8184-7.3789l-7.1738-7.252-5.1758-0.57813c-2.8565-0.31895-5.2527-0.47504-7.207-0.4668zm-14.455 13.545c-0.42093 0-4.465 3.1857-6.0293 4.75-2.7806 2.7806-4.3955 5.8859-4.7852 9.2012l-0.16601 1.4199 2.8418 3.0977c5.2306 5.6991 8.7157 10.344 10.658 14.211l1.2559 2.502 1.0957-2.0508c1.5103-2.8267 2.3692-4.017 4.1953-5.8262 1.7816-1.7651 3.8825-2.9142 6.2012-3.3867l1.5625-0.31641-2.5293-4.793c-1.3906-2.6358-3.7468-6.6672-5.2363-8.959s-3.0458-4.7023-3.459-5.3555c-0.50475-0.79796-1.5093-1.7288-3.0625-2.8398-1.2713-0.90944-2.4156-1.6543-2.543-1.6543zm-6.3008 25.76c-0.52251 0-4.1869 3.4257-5.2207 4.8809-1.5001 2.1116-1.8615 3.34-2.1992 7.4883l-0.28711 3.543 2.6191 2.7168c2.9971 3.1069 5.6055 6.0467 7.3945 8.332 0.68074 0.86959 1.301 1.5174 1.377 1.4414 0.0759-0.076 0.4001-1.2279 0.7207-2.5606 0.91872-3.8189 2.4667-6.1687 5.4902-8.332l0.74805-0.53516-1.502-3.752c-2.7453-6.864-5.4601-11.287-7.7012-12.547-0.66287-0.37261-1.3105-0.67578-1.4395-0.67578zm-5.668 23.359-1.707 1.7871c-0.94895 0.99391-2.0312 2.4518-2.4394 3.2832-0.68133 1.3877-0.73437 1.7034-0.73437 4.3984 0 1.5973 0.0827 3.2043 0.18554 3.5703 0.13589 0.48378 0.89581 1.1182 2.7793 2.3203 1.425 0.90955 3.5557 2.4379 4.7363 3.3965l2.1465 1.7422 0.96289-1.4688c1.144-1.7438 3.0664-3.4851 4.9043-4.4453 0.73154-0.38221 1.3263-0.75081 1.3203-0.82031-0.0337-0.4236-4.5053-6.9903-6.291-9.2383-1.949-2.4535-2.2983-2.766-4-3.6055l-1.8633-0.91992zm-35.914 21.178-0.92383 1.2227c-1.5056 1.9936-2.8648 4.285-3.4629 5.8359-0.90929 2.3577-1.1044 3.6182-1.002 6.459 0.0917 2.5429 0.28252 3.5613 1.1133 5.9043l0.44727 1.2617 2.7188 1.6289c1.4944 0.89643 3.801 2.1568 5.127 2.8008 1.3259 0.64397 2.477 1.1718 2.5566 1.1719 0.0796 0.00007 0.0796-0.58287 0-1.2949-0.27419-2.4525-0.14381-7.1857 0.26367-9.5234 0.918-5.2666 2.7069-9.0554 5.6484-11.967l1.459-1.4453-2.4707-0.48438c-3.0326-0.59658-7.711-1.2847-9.8672-1.4492l-1.6074-0.1211z" />
      <path
         id="path25092-6"
         style="color-rendering:auto;color:#000000;isolation:auto;mix-blend-mode:normal;shape-rendering:auto;solid-color:#000000;image-rendering:auto;fill:#99ff55;fill-opacity:1;opacity:0.5"
         d="m150.32 69.807-0.96679 0.1543c-1.4554 0.23274-4.0314 0.39601-10.305 0.64844-6.4099 0.25793-8.6864 0.72262-11.088 2.2637-2.4221 1.5543-4.1472 4.3919-4.9102 8.0781l-0.38477 1.8555 1.7832 3.5586c1.7118 3.4172 2.7136 6.1432 3.0996 8.4316 0.11189 0.66347 0.28486 1.009 0.45118 0.90625 0.14812-0.0915 1.1226-0.77874 2.166-1.5274 3.6577-2.6242 7.0588-4.226 11.156-5.2539 4.0593-1.0183 6.9771-1.2202 15.342-1.0645 4.2016 0.0783 7.6387 0.0869 7.6387 0.0195 0-0.36398-3.7541-6.4094-5.0273-8.0957-0.81799-1.0834-3.167-3.7694-5.2207-5.9707l-3.7344-4.0039zm-25.758 21.959-1.5371 0.12304c-3.8553 0.30947-7.0723 3.3177-10.01 9.3594l-1.3164 2.709 0.66994 1.7109c1.1245 2.8661 2.5926 5.5215 5.3594 9.6973 1.4538 2.1941 2.7267 3.9864 2.8281 3.9844s0.68815-1.0926 1.3047-2.4238c1.4229-3.0724 3.1448-5.3489 5.0762-6.7109 1.0603-0.74774 1.4723-1.186 1.3672-1.457-0.58776-1.5154-1.4228-5.0228-1.9863-8.3438-0.36533-2.1529-0.9085-4.9795-1.209-6.2812l-0.54687-2.3672zm-12.463 18.803-1.3828 1.0977c-2.3501 1.8643-3.1309 3.4288-4.1016 8.2129l-0.61914 3.0469 3.5449 5.7285c1.95 3.1498 4.0668 6.5705 4.7031 7.6016l1.1562 1.873 0.59765-2.3789c0.99057-3.9488 3.1974-7.811 5.4961-9.6191l0.5957-0.46875-3.3672-4.8574c-1.8517-2.6723-4.0986-6.0684-4.9941-7.5469l-1.6289-2.6894zm-4.1035 20.404c-0.61986 0.004-2.8252 1.3728-3.8945 2.416-1.1548 1.1266-2.4278 3.054-2.4278 3.6758 0 0.24077 0.46377 1.1359 1.0312 1.9902 0.56749 0.85437 1.7161 2.8542 2.5508 4.4434l1.5176 2.8887 1.3008-0.1543c2.971-0.35449 8.3847-1.9116 8.1973-2.3574-0.0421-0.10002-1.8329-3.0444-3.9805-6.543-2.3828-3.8818-4.0579-6.3604-4.2949-6.3594zm-31.936 7.8672-0.9668 0.55274c-4.4596 2.5515-7.2842 8.6737-7.6504 16.576-0.11458 2.4726 0.12745 5.5506 0.53125 6.748 0.20657 0.6126 0.25947 0.63898 3.2461 1.6621 1.6696 0.57198 4.8022 1.7545 6.9629 2.6289 2.1607 0.87443 4.015 1.6016 4.1211 1.6152 0.13296 0.017 0.12135-0.32286-0.041-1.0918-0.38396-1.8184-0.57473-5.4004-0.41016-7.7227 0.39684-5.6 2.0779-9.7525 5.084-12.564 0.63943-0.59816 1.4821-1.2709 1.873-1.4941 0.3909-0.22323 0.70903-0.44504 0.70703-0.49414s-0.94168-0.65234-2.0879-1.3398c-5.6555-3.3922-6.8051-3.9464-9.6719-4.6562l-1.6973-0.41993z" />
      <path
         id="path25548"
         style="color-rendering:auto;color:#000000;isolation:auto;mix-blend-mode:normal;shape-rendering:auto;solid-color:#000000;image-rendering:auto;fill:#99ff55;fill-opacity:1;opacity:0.5"
         d="m156.62 90.067c-12.165 0.002-14.892 0.4239-20.52 3.1621-3.6618 1.7819-7.9622 4.9578-7.793 5.7559 0.0643 0.30323 0.35532 1.8458 0.64648 3.4277 0.29113 1.582 1.1953 4.8782 2.0098 7.3242 1.6937 5.0865 2.1276 7.4245 1.8789 10.105v0.002l-0.17188 1.8711 1.3594-0.80665c3.931-2.332 9.0416-4.4944 13.732-5.8066 6.0996-1.7064 12.568-2.743 24.623-3.9492 3.5418-0.35441 6.584-0.67028 6.7617-0.70118 0.1845-0.032-0.93724-1.8428-2.6172-4.2226-3.1564-4.4716-7.5718-11.027-9.5684-14.205l-1.2305-1.957h-9.1113zm-27.574 21.539c-0.43851-0.14617-2.743 2.0735-3.791 3.6523-0.52837 0.79603-1.4417 2.6114-2.0293 4.0332l-1.0684 2.5859 3.0723 4.2949c2.1394 2.9922 3.1298 4.1899 3.2656 3.9473 0.4272-0.76335 1.7159-6.6583 1.9922-9.1133 0.16257-1.4443 0.21384-3.3236 0.11524-4.2109-0.20876-1.8792-1.1619-5.0579-1.5566-5.1894zm-5.6641 15.955c-0.10575-0.0654-0.76531 0.50979-1.4668 1.2773-1.841 2.0144-3.1193 4.7528-4.0547 8.6875l-0.78711 3.3145 0.57031 1.002c0.31448 0.55074 0.70331 1.001 0.86328 1.002 0.44256 0.003 4.6212-3.3064 5.8125-4.6035 1.2293-1.3385 2.1991-2.8166 2.75-4.1934l0.39258-0.98047-1.9434-2.6934c-1.0688-1.481-2.031-2.7471-2.1367-2.8125zm-31.361 18.973-1.4141 0.70704c-2.4928 1.2477-4.5281 3.8422-5.6055 7.1426-1.3088 4.0094-1.4349 10.223-0.28711 14.129 0.19337 0.65796 0.44591 1.2541 0.5625 1.3262 0.1166 0.0721 2.8678 1.1959 6.1133 2.4961s5.916 2.3476 5.9355 2.3281-0.24117-0.77351-0.58007-1.6758c-0.92941-2.4744-1.1933-3.9212-1.1953-6.5644-0.002-2.4955 0.25711-4.0794 1.0586-6.4766 0.79062-2.3646 2.4639-5.4891 4.2148-7.8711 0.38601-0.52514 0.63458-1.0187 0.55078-1.0977-0.61012-0.57487-5.3115-3.0912-6.2109-3.3242-0.59529-0.15425-1.5463-0.46885-2.1133-0.69922l-1.0293-0.41993zm10.285 2.0234-0.80078 0.0254 0.72656 0.40625 0.72657 0.40821 0.33789-0.36329 0.33984-0.36132-0.26562-0.0703c-0.14581-0.0386-0.62444-0.059-1.0645-0.0449z" />
      <path
         id="path25138-0"
         style="color-rendering:auto;color:#000000;isolation:auto;mix-blend-mode:normal;shape-rendering:auto;solid-color:#000000;image-rendering:auto;fill:#99ff55;fill-opacity:1;opacity:0.5"
         d="m143.85 197.63c-7.3038-4.8966-13.594-8.5436-21.934-12.717-2.9338-1.4682-5.3341-2.7682-5.3341-2.889 0-0.4272 1.7463-4.5436 2.9131-6.8669 7.28-14.495 19.782-23.229 39.725-27.753 6.3711-1.4451 11.806-2.2523 25.547-3.7946 4.9308-0.55343 10.937-1.3053 13.347-1.6709 4.279-0.64903 4.3929-0.65356 4.8412-0.19239 0.77341 0.79562 7.9332 10.825 10.973 15.372 2.4576 3.6754 6.2714 9.9923 6.1168 10.131-0.0272 0.0244-0.89524-0.17164-1.9291-0.43565-6.4134-1.6378-16.628-0.98422-30.193 1.932-2.2223 0.47775-5.1202 1.1617-6.4397 1.52-1.3195 0.35823-3.4605 0.92969-4.7577 1.2699-3.0102 0.78948-6.1732 2.0128-9.4089 3.639-9.8562 4.9535-16.555 12.716-19.175 22.223-0.32547 1.1806-0.65884 2.229-0.74082 2.3298-0.082 0.10079-1.6803-0.84333-3.5518-2.098z" />
      <path
         id="path25140-4"
         style="color-rendering:auto;color:#000000;isolation:auto;mix-blend-mode:normal;shape-rendering:auto;solid-color:#000000;image-rendering:auto;fill:#99ff55;fill-opacity:1;opacity:0.5"
         d="m178.21 220.15c-0.37852-0.70728-3.7688-3.3762-6.9585-5.478-1.5278-1.0067-4.7666-2.8432-7.1973-4.0811-4.8047-2.4469-7.131-3.8383-11.671-6.9805l-2.9582-2.0475 0.15054-0.88389c0.33245-1.952 1.4365-5.3013 2.4629-7.4716 3.7237-7.8736 10.752-14.089 20.097-17.771 1.7362-0.68414 4.2363-1.5249 5.5558-1.8684 1.3195-0.34347 3.706-0.97082 5.3033-1.3941 12.814-3.3958 26.882-4.8517 33.476-3.4646 4.264 0.89697 5.3662 1.8289 7.72 6.5276 3.6177 7.2216 11.986 25.63 11.756 25.86-0.0638 0.0638-2.3162-0.003-5.0052-0.14913-6.3075-0.34214-15.535-0.34215-19.051-0.00003-11.41 1.1104-20.464 5.3163-27.76 12.896-1.389 1.443-3.2311 3.5611-4.0937 4.7068-1.3942 1.8518-1.5971 2.0294-1.8272 1.5993z" />
      <path
         id="path25142-2"
         style="color-rendering:auto;color:#000000;isolation:auto;mix-blend-mode:normal;shape-rendering:auto;solid-color:#000000;image-rendering:auto;fill:#99ff55;fill-opacity:1;opacity:0.5"
         d="m189.34 259.92c-0.14807-0.7326-0.5058-2.582-0.79494-4.1099-2.1473-11.347-5.7368-25.33-8.0208-31.245l-0.75316-1.9507 1.3012-1.7503c7.5237-10.12 15.406-15.117 27.243-17.271 2.8587-0.52003 3.8556-0.56387 12.822-0.56387 5.3475 0 11.143 0.095 12.88 0.21122l3.1572 0.21123 0.73259 1.6828c4.4038 10.116 14.115 33.638 13.954 33.799-0.0588 0.0588-1.7964-0.0786-3.8615-0.30515-5.1421-0.56424-16.071-0.776-19.926-0.38609-15.761 1.5942-27.274 8.0524-36.618 20.54l-1.8469 2.4683-0.26923-1.3318z" />
      <path
         id="path25144-7"
         style="color-rendering:auto;color:#000000;isolation:auto;mix-blend-mode:normal;shape-rendering:auto;solid-color:#000000;image-rendering:auto;fill:#99ff55;fill-opacity:1;opacity:0.5"
         d="m195.37 296.82c0-0.3273-3.5884-22.819-4.3732-27.411l-0.83694-4.8968 1.8748-2.6793c8.7757-12.542 19.801-19.308 34.398-21.112 5.9014-0.72911 15.741-0.50041 25.092 0.58322l1.4792 0.17142 2.2765 5.6821c6.2268 15.542 12.213 31.195 11.955 31.259-0.15612 0.039-3.6899-0.4393-7.8528-1.0628-4.1629-0.6234-9.1031-1.2679-10.978-1.432-6.1142-0.5351-13.542 0.08-18.94 1.5682-9.5015 2.6194-19.262 7.8892-29.517 15.936-4.3892 3.4442-4.5758 3.5826-4.5758 3.3929z" />
    </g>
  </g>
</svg>
